G04 #@! TF.GenerationSoftware,KiCad,Pcbnew,5.1.0-rc2-unknown-4612175~81~ubuntu18.04.1*
G04 #@! TF.CreationDate,2019-03-08T09:09:48+02:00*
G04 #@! TF.ProjectId,MOD-ENV_revB,4d4f442d-454e-4565-9f72-6576422e6b69,rev?*
G04 #@! TF.SameCoordinates,Original*
G04 #@! TF.FileFunction,Legend,Top*
G04 #@! TF.FilePolarity,Positive*
%FSLAX46Y46*%
G04 Gerber Fmt 4.6, Leading zero omitted, Abs format (unit mm)*
G04 Created by KiCad (PCBNEW 5.1.0-rc2-unknown-4612175~81~ubuntu18.04.1) date 2019-03-08 09:09:48*
%MOMM*%
%LPD*%
G04 APERTURE LIST*
%ADD10C,0.508000*%
%ADD11C,0.254000*%
%ADD12C,0.150000*%
%ADD13C,0.120000*%
%ADD14C,0.100000*%
G04 APERTURE END LIST*
D10*
X78105000Y-58801000D02*
X81280000Y-58801000D01*
X98425000Y-58801000D02*
X95250000Y-58801000D01*
X95250000Y-67691000D02*
X98425000Y-67691000D01*
X78105000Y-67691000D02*
X81280000Y-67691000D01*
X78105000Y-58801000D02*
X78105000Y-67691000D01*
X98425000Y-58801000D02*
X98425000Y-67691000D01*
D11*
X93865700Y-70358000D02*
X93865700Y-70612000D01*
X93865700Y-70358000D02*
X93865700Y-70104000D01*
X92976700Y-70358000D02*
X92976700Y-70104000D01*
X92976700Y-70358000D02*
X92976700Y-70612000D01*
X82890848Y-69392573D02*
X83144848Y-69392573D01*
X82890848Y-69392573D02*
X82636848Y-69392573D01*
X82890848Y-70281573D02*
X82636848Y-70281573D01*
X82890848Y-70281573D02*
X83144848Y-70281573D01*
X82890848Y-70535573D02*
X83144848Y-70535573D01*
X82890848Y-70535573D02*
X82636848Y-70535573D01*
X82890848Y-71424573D02*
X82636848Y-71424573D01*
X82890848Y-71424573D02*
X83144848Y-71424573D01*
X92722700Y-70358000D02*
X92722700Y-70612000D01*
X92722700Y-70358000D02*
X92722700Y-70104000D01*
X91833700Y-70358000D02*
X91833700Y-70104000D01*
X91833700Y-70358000D02*
X91833700Y-70612000D01*
X95059500Y-70358000D02*
X95059500Y-70612000D01*
X95059500Y-70358000D02*
X95059500Y-70104000D01*
X94170500Y-70358000D02*
X94170500Y-70104000D01*
X94170500Y-70358000D02*
X94170500Y-70612000D01*
X96202500Y-70358000D02*
X96202500Y-70612000D01*
X96202500Y-70358000D02*
X96202500Y-70104000D01*
X95313500Y-70358000D02*
X95313500Y-70104000D01*
X95313500Y-70358000D02*
X95313500Y-70612000D01*
X98361500Y-73406000D02*
X98361500Y-73660000D01*
X98361500Y-73406000D02*
X98361500Y-73152000D01*
X97472500Y-73406000D02*
X97472500Y-73152000D01*
X97472500Y-73406000D02*
X97472500Y-73660000D01*
X96456500Y-70358000D02*
X96456500Y-70104000D01*
X96456500Y-70358000D02*
X96456500Y-70612000D01*
X97345500Y-70358000D02*
X97345500Y-70612000D01*
X97345500Y-70358000D02*
X97345500Y-70104000D01*
D12*
X92415000Y-71831400D02*
X96815000Y-71831400D01*
X92415000Y-75031400D02*
X92415000Y-71831400D01*
X96815000Y-75031400D02*
X92415000Y-75031400D01*
X96815000Y-71831400D02*
X96815000Y-75031400D01*
D13*
X97115000Y-71731400D02*
G75*
G03X97115000Y-71731400I-200000J0D01*
G01*
D14*
X83439000Y-75311000D02*
X80645000Y-75311000D01*
X83439000Y-72517000D02*
X83439000Y-75311000D01*
X80645000Y-72517000D02*
X83439000Y-72517000D01*
X80645000Y-75311000D02*
X80645000Y-72517000D01*
X80772000Y-72136000D02*
X80772000Y-72390000D01*
X81026000Y-72136000D02*
X80772000Y-72136000D01*
X81026000Y-72390000D02*
X81026000Y-72136000D01*
X80772000Y-72390000D02*
X81026000Y-72390000D01*
D12*
X97790000Y-76517500D02*
X97536000Y-76517500D01*
X97790000Y-76517500D02*
X98044000Y-76517500D01*
X97790000Y-75628500D02*
X98044000Y-75628500D01*
X97790000Y-75628500D02*
X97536000Y-75628500D01*
X80073500Y-73406000D02*
X80073500Y-73660000D01*
X80073500Y-73406000D02*
X80073500Y-73152000D01*
X79184500Y-73406000D02*
X79184500Y-73152000D01*
X79184500Y-73406000D02*
X79184500Y-73660000D01*
X87177713Y-63476142D02*
X87130094Y-63523761D01*
X86987237Y-63571380D01*
X86891999Y-63571380D01*
X86749141Y-63523761D01*
X86653903Y-63428523D01*
X86606284Y-63333285D01*
X86558665Y-63142809D01*
X86558665Y-62999952D01*
X86606284Y-62809476D01*
X86653903Y-62714238D01*
X86749141Y-62619000D01*
X86891999Y-62571380D01*
X86987237Y-62571380D01*
X87130094Y-62619000D01*
X87177713Y-62666619D01*
X87796760Y-62571380D02*
X87987237Y-62571380D01*
X88082475Y-62619000D01*
X88177713Y-62714238D01*
X88225332Y-62904714D01*
X88225332Y-63238047D01*
X88177713Y-63428523D01*
X88082475Y-63523761D01*
X87987237Y-63571380D01*
X87796760Y-63571380D01*
X87701522Y-63523761D01*
X87606284Y-63428523D01*
X87558665Y-63238047D01*
X87558665Y-62904714D01*
X87606284Y-62714238D01*
X87701522Y-62619000D01*
X87796760Y-62571380D01*
X88653903Y-63571380D02*
X88653903Y-62571380D01*
X89225332Y-63571380D01*
X89225332Y-62571380D01*
X90225332Y-63571380D02*
X89653903Y-63571380D01*
X89939618Y-63571380D02*
X89939618Y-62571380D01*
X89844379Y-62714238D01*
X89749141Y-62809476D01*
X89653903Y-62857095D01*
X96450114Y-58415180D02*
X95878685Y-58415180D01*
X96164400Y-58415180D02*
X96164400Y-57415180D01*
X96069161Y-57558038D01*
X95973923Y-57653276D01*
X95878685Y-57700895D01*
D14*
X91731266Y-69458666D02*
X91397933Y-69692000D01*
X91731266Y-69858666D02*
X91031266Y-69858666D01*
X91031266Y-69592000D01*
X91064600Y-69525333D01*
X91097933Y-69492000D01*
X91164600Y-69458666D01*
X91264600Y-69458666D01*
X91331266Y-69492000D01*
X91364600Y-69525333D01*
X91397933Y-69592000D01*
X91397933Y-69858666D01*
X91031266Y-68858666D02*
X91031266Y-68992000D01*
X91064600Y-69058666D01*
X91097933Y-69092000D01*
X91197933Y-69158666D01*
X91331266Y-69192000D01*
X91597933Y-69192000D01*
X91664600Y-69158666D01*
X91697933Y-69125333D01*
X91731266Y-69058666D01*
X91731266Y-68925333D01*
X91697933Y-68858666D01*
X91664600Y-68825333D01*
X91597933Y-68792000D01*
X91431266Y-68792000D01*
X91364600Y-68825333D01*
X91331266Y-68858666D01*
X91297933Y-68925333D01*
X91297933Y-69058666D01*
X91331266Y-69125333D01*
X91364600Y-69158666D01*
X91431266Y-69192000D01*
X84592333Y-70141266D02*
X84359000Y-69807933D01*
X84192333Y-70141266D02*
X84192333Y-69441266D01*
X84459000Y-69441266D01*
X84525666Y-69474600D01*
X84559000Y-69507933D01*
X84592333Y-69574600D01*
X84592333Y-69674600D01*
X84559000Y-69741266D01*
X84525666Y-69774600D01*
X84459000Y-69807933D01*
X84192333Y-69807933D01*
X85225666Y-69441266D02*
X84892333Y-69441266D01*
X84859000Y-69774600D01*
X84892333Y-69741266D01*
X84959000Y-69707933D01*
X85125666Y-69707933D01*
X85192333Y-69741266D01*
X85225666Y-69774600D01*
X85259000Y-69841266D01*
X85259000Y-70007933D01*
X85225666Y-70074600D01*
X85192333Y-70107933D01*
X85125666Y-70141266D01*
X84959000Y-70141266D01*
X84892333Y-70107933D01*
X84859000Y-70074600D01*
X84541533Y-71284266D02*
X84308200Y-70950933D01*
X84141533Y-71284266D02*
X84141533Y-70584266D01*
X84408200Y-70584266D01*
X84474866Y-70617600D01*
X84508200Y-70650933D01*
X84541533Y-70717600D01*
X84541533Y-70817600D01*
X84508200Y-70884266D01*
X84474866Y-70917600D01*
X84408200Y-70950933D01*
X84141533Y-70950933D01*
X85141533Y-70817600D02*
X85141533Y-71284266D01*
X84974866Y-70550933D02*
X84808200Y-71050933D01*
X85241533Y-71050933D01*
X90816866Y-69433266D02*
X90483533Y-69666600D01*
X90816866Y-69833266D02*
X90116866Y-69833266D01*
X90116866Y-69566600D01*
X90150200Y-69499933D01*
X90183533Y-69466600D01*
X90250200Y-69433266D01*
X90350200Y-69433266D01*
X90416866Y-69466600D01*
X90450200Y-69499933D01*
X90483533Y-69566600D01*
X90483533Y-69833266D01*
X90116866Y-69199933D02*
X90116866Y-68766600D01*
X90383533Y-68999933D01*
X90383533Y-68899933D01*
X90416866Y-68833266D01*
X90450200Y-68799933D01*
X90516866Y-68766600D01*
X90683533Y-68766600D01*
X90750200Y-68799933D01*
X90783533Y-68833266D01*
X90816866Y-68899933D01*
X90816866Y-69099933D01*
X90783533Y-69166600D01*
X90750200Y-69199933D01*
X96100066Y-68823666D02*
X95766733Y-69057000D01*
X96100066Y-69223666D02*
X95400066Y-69223666D01*
X95400066Y-68957000D01*
X95433400Y-68890333D01*
X95466733Y-68857000D01*
X95533400Y-68823666D01*
X95633400Y-68823666D01*
X95700066Y-68857000D01*
X95733400Y-68890333D01*
X95766733Y-68957000D01*
X95766733Y-69223666D01*
X95466733Y-68557000D02*
X95433400Y-68523666D01*
X95400066Y-68457000D01*
X95400066Y-68290333D01*
X95433400Y-68223666D01*
X95466733Y-68190333D01*
X95533400Y-68157000D01*
X95600066Y-68157000D01*
X95700066Y-68190333D01*
X96100066Y-68590333D01*
X96100066Y-68157000D01*
X97141466Y-68798266D02*
X96808133Y-69031600D01*
X97141466Y-69198266D02*
X96441466Y-69198266D01*
X96441466Y-68931600D01*
X96474800Y-68864933D01*
X96508133Y-68831600D01*
X96574800Y-68798266D01*
X96674800Y-68798266D01*
X96741466Y-68831600D01*
X96774800Y-68864933D01*
X96808133Y-68931600D01*
X96808133Y-69198266D01*
X97141466Y-68131600D02*
X97141466Y-68531600D01*
X97141466Y-68331600D02*
X96441466Y-68331600D01*
X96541466Y-68398266D01*
X96608133Y-68464933D01*
X96641466Y-68531600D01*
X98462266Y-71617666D02*
X98128933Y-71851000D01*
X98462266Y-72017666D02*
X97762266Y-72017666D01*
X97762266Y-71751000D01*
X97795600Y-71684333D01*
X97828933Y-71651000D01*
X97895600Y-71617666D01*
X97995600Y-71617666D01*
X98062266Y-71651000D01*
X98095600Y-71684333D01*
X98128933Y-71751000D01*
X98128933Y-72017666D01*
X97762266Y-71384333D02*
X97762266Y-70917666D01*
X98462266Y-71217666D01*
X98106666Y-68849066D02*
X97773333Y-69082400D01*
X98106666Y-69249066D02*
X97406666Y-69249066D01*
X97406666Y-68982400D01*
X97440000Y-68915733D01*
X97473333Y-68882400D01*
X97540000Y-68849066D01*
X97640000Y-68849066D01*
X97706666Y-68882400D01*
X97740000Y-68915733D01*
X97773333Y-68982400D01*
X97773333Y-69249066D01*
X97706666Y-68449066D02*
X97673333Y-68515733D01*
X97640000Y-68549066D01*
X97573333Y-68582400D01*
X97540000Y-68582400D01*
X97473333Y-68549066D01*
X97440000Y-68515733D01*
X97406666Y-68449066D01*
X97406666Y-68315733D01*
X97440000Y-68249066D01*
X97473333Y-68215733D01*
X97540000Y-68182400D01*
X97573333Y-68182400D01*
X97640000Y-68215733D01*
X97673333Y-68249066D01*
X97706666Y-68315733D01*
X97706666Y-68449066D01*
X97740000Y-68515733D01*
X97773333Y-68549066D01*
X97840000Y-68582400D01*
X97973333Y-68582400D01*
X98040000Y-68549066D01*
X98073333Y-68515733D01*
X98106666Y-68449066D01*
X98106666Y-68315733D01*
X98073333Y-68249066D01*
X98040000Y-68215733D01*
X97973333Y-68182400D01*
X97840000Y-68182400D01*
X97773333Y-68215733D01*
X97740000Y-68249066D01*
X97706666Y-68315733D01*
D12*
X93726095Y-75499980D02*
X93726095Y-76309504D01*
X93773714Y-76404742D01*
X93821333Y-76452361D01*
X93916571Y-76499980D01*
X94107047Y-76499980D01*
X94202285Y-76452361D01*
X94249904Y-76404742D01*
X94297523Y-76309504D01*
X94297523Y-75499980D01*
X94726095Y-75595219D02*
X94773714Y-75547600D01*
X94868952Y-75499980D01*
X95107047Y-75499980D01*
X95202285Y-75547600D01*
X95249904Y-75595219D01*
X95297523Y-75690457D01*
X95297523Y-75785695D01*
X95249904Y-75928552D01*
X94678476Y-76499980D01*
X95297523Y-76499980D01*
X78105095Y-74763380D02*
X78105095Y-75572904D01*
X78152714Y-75668142D01*
X78200333Y-75715761D01*
X78295571Y-75763380D01*
X78486047Y-75763380D01*
X78581285Y-75715761D01*
X78628904Y-75668142D01*
X78676523Y-75572904D01*
X78676523Y-74763380D01*
X79676523Y-75763380D02*
X79105095Y-75763380D01*
X79390809Y-75763380D02*
X79390809Y-74763380D01*
X79295571Y-74906238D01*
X79200333Y-75001476D01*
X79105095Y-75049095D01*
D14*
X97682066Y-75342714D02*
X97643971Y-75380809D01*
X97529685Y-75418904D01*
X97453495Y-75418904D01*
X97339209Y-75380809D01*
X97263019Y-75304619D01*
X97224923Y-75228428D01*
X97186828Y-75076047D01*
X97186828Y-74961761D01*
X97224923Y-74809380D01*
X97263019Y-74733190D01*
X97339209Y-74657000D01*
X97453495Y-74618904D01*
X97529685Y-74618904D01*
X97643971Y-74657000D01*
X97682066Y-74695095D01*
X97986828Y-74695095D02*
X98024923Y-74657000D01*
X98101114Y-74618904D01*
X98291590Y-74618904D01*
X98367780Y-74657000D01*
X98405876Y-74695095D01*
X98443971Y-74771285D01*
X98443971Y-74847476D01*
X98405876Y-74961761D01*
X97948733Y-75418904D01*
X98443971Y-75418904D01*
X78822514Y-73564733D02*
X78860609Y-73602828D01*
X78898704Y-73717114D01*
X78898704Y-73793304D01*
X78860609Y-73907590D01*
X78784419Y-73983780D01*
X78708228Y-74021876D01*
X78555847Y-74059971D01*
X78441561Y-74059971D01*
X78289180Y-74021876D01*
X78212990Y-73983780D01*
X78136800Y-73907590D01*
X78098704Y-73793304D01*
X78098704Y-73717114D01*
X78136800Y-73602828D01*
X78174895Y-73564733D01*
X78898704Y-72802828D02*
X78898704Y-73259971D01*
X78898704Y-73031400D02*
X78098704Y-73031400D01*
X78212990Y-73107590D01*
X78289180Y-73183780D01*
X78327276Y-73259971D01*
M02*
