G04 #@! TF.GenerationSoftware,KiCad,Pcbnew,5.1.0-rc2-unknown-4612175~81~ubuntu18.04.1*
G04 #@! TF.CreationDate,2019-03-08T09:09:48+02:00*
G04 #@! TF.ProjectId,MOD-ENV_revB,4d4f442d-454e-4565-9f72-6576422e6b69,rev?*
G04 #@! TF.SameCoordinates,Original*
G04 #@! TF.FileFunction,Copper,L2,Bot*
G04 #@! TF.FilePolarity,Positive*
%FSLAX46Y46*%
G04 Gerber Fmt 4.6, Leading zero omitted, Abs format (unit mm)*
G04 Created by KiCad (PCBNEW 5.1.0-rc2-unknown-4612175~81~ubuntu18.04.1) date 2019-03-08 09:09:48*
%MOMM*%
%LPD*%
G04 APERTURE LIST*
%ADD10C,0.800000*%
%ADD11C,0.762000*%
%ADD12C,0.203200*%
%ADD13C,0.355600*%
%ADD14C,0.508000*%
%ADD15C,0.250000*%
%ADD16C,0.254000*%
G04 APERTURE END LIST*
D10*
X80289400Y-72186800D03*
X97663000Y-74853800D03*
X93345000Y-68707000D03*
X79462707Y-75651079D03*
X97663000Y-71907400D03*
X78587600Y-73964800D03*
X93012478Y-75310740D03*
X93345000Y-62636400D03*
X96076541Y-76137541D03*
X95167899Y-75359740D03*
X87680800Y-69113400D03*
X96596200Y-75209400D03*
X84270223Y-69335023D03*
X90805000Y-64135000D03*
X94665800Y-68656200D03*
D11*
X97434400Y-74392518D02*
X97681991Y-74640109D01*
X97434400Y-73362085D02*
X97434400Y-74392518D01*
X93345000Y-68707000D02*
X93345000Y-69272685D01*
X93345000Y-69272685D02*
X97434400Y-73362085D01*
X80289400Y-74824386D02*
X80289400Y-72186800D01*
X79462707Y-75651079D02*
X80289400Y-74824386D01*
X80289400Y-71621115D02*
X85489515Y-66421000D01*
X80289400Y-72186800D02*
X80289400Y-71621115D01*
X91059000Y-66421000D02*
X93345000Y-68707000D01*
X85489515Y-66421000D02*
X91059000Y-66421000D01*
D12*
X93014536Y-75310740D02*
X93012478Y-75310740D01*
X93014800Y-75311004D02*
X93014536Y-75310740D01*
D13*
X98062999Y-72307399D02*
X97663000Y-71907400D01*
X93012478Y-75876425D02*
X93273594Y-76137541D01*
X93012478Y-75310740D02*
X93012478Y-75876425D01*
X98440801Y-75227145D02*
X98440801Y-72685201D01*
X97530405Y-76137541D02*
X98440801Y-75227145D01*
X98440801Y-72685201D02*
X98062999Y-72307399D01*
X93273594Y-76137541D02*
X96076541Y-76137541D01*
X96076541Y-76137541D02*
X97530405Y-76137541D01*
D14*
X78587600Y-65100200D02*
X78587600Y-73964800D01*
X82067400Y-61620400D02*
X78587600Y-65100200D01*
X93345000Y-62636400D02*
X92329000Y-61620400D01*
X92329000Y-61620400D02*
X82067400Y-61620400D01*
D13*
X87680800Y-69113400D02*
X91084400Y-69113400D01*
X95167899Y-73196899D02*
X95167899Y-75359740D01*
X91084400Y-69113400D02*
X95167899Y-73196899D01*
X96596200Y-75209400D02*
X96596200Y-73839449D01*
X91092350Y-68335599D02*
X85269647Y-68335599D01*
X84670222Y-68935024D02*
X84270223Y-69335023D01*
X85269647Y-68335599D02*
X84670222Y-68935024D01*
X96596200Y-73839449D02*
X91092350Y-68335599D01*
D15*
X90805000Y-64135000D02*
X90805000Y-64795400D01*
X90805000Y-64795400D02*
X94665800Y-68656200D01*
D16*
G36*
X98654001Y-72108138D02*
G01*
X98477540Y-71931678D01*
X98477536Y-71931673D01*
X98444000Y-71898137D01*
X98444000Y-71830478D01*
X98413987Y-71679591D01*
X98355113Y-71537458D01*
X98269642Y-71409541D01*
X98160859Y-71300758D01*
X98032942Y-71215287D01*
X97890809Y-71156413D01*
X97739922Y-71126400D01*
X97586078Y-71126400D01*
X97435191Y-71156413D01*
X97293058Y-71215287D01*
X97165141Y-71300758D01*
X97056358Y-71409541D01*
X96970887Y-71537458D01*
X96912013Y-71679591D01*
X96882000Y-71830478D01*
X96882000Y-71984322D01*
X96912013Y-72135209D01*
X96970887Y-72277342D01*
X97056358Y-72405259D01*
X97165141Y-72514042D01*
X97293058Y-72599513D01*
X97435191Y-72658387D01*
X97586078Y-72688400D01*
X97653737Y-72688400D01*
X97687273Y-72721936D01*
X97687278Y-72721940D01*
X97882002Y-72916664D01*
X97882001Y-74995683D01*
X97298943Y-75578741D01*
X97288562Y-75578741D01*
X97347187Y-75437209D01*
X97377200Y-75286322D01*
X97377200Y-75132478D01*
X97347187Y-74981591D01*
X97288313Y-74839458D01*
X97202842Y-74711541D01*
X97155000Y-74663699D01*
X97155000Y-73866890D01*
X97157703Y-73839448D01*
X97155000Y-73812005D01*
X97146914Y-73729905D01*
X97114961Y-73624571D01*
X97063073Y-73527495D01*
X96993243Y-73442406D01*
X96971919Y-73424906D01*
X91506893Y-67959880D01*
X91489393Y-67938556D01*
X91404304Y-67868726D01*
X91307228Y-67816838D01*
X91201894Y-67784885D01*
X91119794Y-67776799D01*
X91119792Y-67776799D01*
X91092350Y-67774096D01*
X91064908Y-67776799D01*
X85297089Y-67776799D01*
X85269647Y-67774096D01*
X85242205Y-67776799D01*
X85242203Y-67776799D01*
X85160103Y-67784885D01*
X85054769Y-67816838D01*
X84957693Y-67868726D01*
X84872604Y-67938556D01*
X84855108Y-67959875D01*
X84294501Y-68520483D01*
X84294496Y-68520487D01*
X84260960Y-68554023D01*
X84193301Y-68554023D01*
X84042414Y-68584036D01*
X83900281Y-68642910D01*
X83772364Y-68728381D01*
X83663581Y-68837164D01*
X83578110Y-68965081D01*
X83519236Y-69107214D01*
X83489223Y-69258101D01*
X83489223Y-69411945D01*
X83519236Y-69562832D01*
X83578110Y-69704965D01*
X83663581Y-69832882D01*
X83772364Y-69941665D01*
X83900281Y-70027136D01*
X84042414Y-70086010D01*
X84193301Y-70116023D01*
X84347145Y-70116023D01*
X84498032Y-70086010D01*
X84640165Y-70027136D01*
X84768082Y-69941665D01*
X84876865Y-69832882D01*
X84962336Y-69704965D01*
X85021210Y-69562832D01*
X85051223Y-69411945D01*
X85051223Y-69344286D01*
X85084759Y-69310750D01*
X85084763Y-69310745D01*
X85501110Y-68894399D01*
X86928061Y-68894399D01*
X86899800Y-69036478D01*
X86899800Y-69190322D01*
X86929813Y-69341209D01*
X86988687Y-69483342D01*
X87074158Y-69611259D01*
X87182941Y-69720042D01*
X87187368Y-69723000D01*
X85064600Y-69723000D01*
X85039824Y-69725440D01*
X85015999Y-69732667D01*
X84994043Y-69744403D01*
X84974797Y-69760197D01*
X84959003Y-69779443D01*
X84947267Y-69801399D01*
X84940040Y-69825224D01*
X84937600Y-69850000D01*
X84937600Y-76429000D01*
X77876000Y-76429000D01*
X77876000Y-74287697D01*
X77895487Y-74334742D01*
X77980958Y-74462659D01*
X78089741Y-74571442D01*
X78217658Y-74656913D01*
X78359791Y-74715787D01*
X78510678Y-74745800D01*
X78664522Y-74745800D01*
X78815409Y-74715787D01*
X78957542Y-74656913D01*
X79085459Y-74571442D01*
X79194242Y-74462659D01*
X79279713Y-74334742D01*
X79338587Y-74192609D01*
X79368600Y-74041722D01*
X79368600Y-73887878D01*
X79338587Y-73736991D01*
X79279713Y-73594858D01*
X79222600Y-73509382D01*
X79222600Y-65363224D01*
X81436444Y-63149380D01*
X83474000Y-63149380D01*
X83474000Y-63342620D01*
X83511699Y-63532147D01*
X83585649Y-63710678D01*
X83693007Y-63871351D01*
X83829649Y-64007993D01*
X83990322Y-64115351D01*
X84168853Y-64189301D01*
X84358380Y-64227000D01*
X84551620Y-64227000D01*
X84741147Y-64189301D01*
X84919678Y-64115351D01*
X85080351Y-64007993D01*
X85216993Y-63871351D01*
X85324351Y-63710678D01*
X85398301Y-63532147D01*
X85436000Y-63342620D01*
X85436000Y-63149380D01*
X85398301Y-62959853D01*
X85324351Y-62781322D01*
X85216993Y-62620649D01*
X85080351Y-62484007D01*
X84919678Y-62376649D01*
X84741147Y-62302699D01*
X84551620Y-62265000D01*
X84358380Y-62265000D01*
X84168853Y-62302699D01*
X83990322Y-62376649D01*
X83829649Y-62484007D01*
X83693007Y-62620649D01*
X83585649Y-62781322D01*
X83511699Y-62959853D01*
X83474000Y-63149380D01*
X81436444Y-63149380D01*
X82330425Y-62255400D01*
X92065976Y-62255400D01*
X92075576Y-62265000D01*
X91978380Y-62265000D01*
X91788853Y-62302699D01*
X91610322Y-62376649D01*
X91449649Y-62484007D01*
X91313007Y-62620649D01*
X91205649Y-62781322D01*
X91131699Y-62959853D01*
X91094000Y-63149380D01*
X91094000Y-63342620D01*
X91108467Y-63415352D01*
X91032809Y-63384013D01*
X90881922Y-63354000D01*
X90728078Y-63354000D01*
X90577191Y-63384013D01*
X90435058Y-63442887D01*
X90307141Y-63528358D01*
X90198358Y-63637141D01*
X90112887Y-63765058D01*
X90054013Y-63907191D01*
X90024000Y-64058078D01*
X90024000Y-64211922D01*
X90054013Y-64362809D01*
X90112887Y-64504942D01*
X90198358Y-64632859D01*
X90299001Y-64733502D01*
X90299001Y-64770544D01*
X90296553Y-64795400D01*
X90306322Y-64894592D01*
X90335255Y-64989974D01*
X90335256Y-64989975D01*
X90382242Y-65077879D01*
X90445474Y-65154927D01*
X90464781Y-65170772D01*
X93884800Y-68590792D01*
X93884800Y-68733122D01*
X93914813Y-68884009D01*
X93973687Y-69026142D01*
X94059158Y-69154059D01*
X94167941Y-69262842D01*
X94295858Y-69348313D01*
X94437991Y-69407187D01*
X94588878Y-69437200D01*
X94742722Y-69437200D01*
X94893609Y-69407187D01*
X95035742Y-69348313D01*
X95163659Y-69262842D01*
X95272442Y-69154059D01*
X95357913Y-69026142D01*
X95416787Y-68884009D01*
X95446800Y-68733122D01*
X95446800Y-68579278D01*
X95416787Y-68428391D01*
X95357913Y-68286258D01*
X95272442Y-68158341D01*
X95163659Y-68049558D01*
X95035742Y-67964087D01*
X94893609Y-67905213D01*
X94742722Y-67875200D01*
X94600392Y-67875200D01*
X91384846Y-64659655D01*
X91411642Y-64632859D01*
X91497113Y-64504942D01*
X91555987Y-64362809D01*
X91586000Y-64211922D01*
X91586000Y-64099100D01*
X91610322Y-64115351D01*
X91788853Y-64189301D01*
X91978380Y-64227000D01*
X92171620Y-64227000D01*
X92361147Y-64189301D01*
X92539678Y-64115351D01*
X92700351Y-64007993D01*
X92836993Y-63871351D01*
X92944351Y-63710678D01*
X93018301Y-63532147D01*
X93052431Y-63360562D01*
X93117191Y-63387387D01*
X93268078Y-63417400D01*
X93421922Y-63417400D01*
X93572809Y-63387387D01*
X93714942Y-63328513D01*
X93842859Y-63243042D01*
X93951642Y-63134259D01*
X94037113Y-63006342D01*
X94095987Y-62864209D01*
X94126000Y-62713322D01*
X94126000Y-62559478D01*
X94095987Y-62408591D01*
X94037113Y-62266458D01*
X93951642Y-62138541D01*
X93842859Y-62029758D01*
X93714942Y-61944287D01*
X93572809Y-61885413D01*
X93471982Y-61865357D01*
X92800074Y-61193450D01*
X92780185Y-61169215D01*
X92683494Y-61089863D01*
X92573180Y-61030898D01*
X92453482Y-60994588D01*
X92360192Y-60985400D01*
X92360181Y-60985400D01*
X92329000Y-60982329D01*
X92297819Y-60985400D01*
X82098580Y-60985400D01*
X82067399Y-60982329D01*
X82036218Y-60985400D01*
X82036208Y-60985400D01*
X81942918Y-60994588D01*
X81823220Y-61030898D01*
X81751331Y-61069324D01*
X81712905Y-61089863D01*
X81661773Y-61131826D01*
X81616215Y-61169215D01*
X81596330Y-61193445D01*
X78160650Y-64629126D01*
X78136415Y-64649015D01*
X78057063Y-64745707D01*
X77998098Y-64856021D01*
X77961788Y-64975719D01*
X77952600Y-65069009D01*
X77952600Y-65069019D01*
X77949529Y-65100200D01*
X77952600Y-65131381D01*
X77952601Y-73509381D01*
X77895487Y-73594858D01*
X77876000Y-73641903D01*
X77876000Y-57556000D01*
X98654000Y-57556000D01*
X98654001Y-72108138D01*
X98654001Y-72108138D01*
G37*
X98654001Y-72108138D02*
X98477540Y-71931678D01*
X98477536Y-71931673D01*
X98444000Y-71898137D01*
X98444000Y-71830478D01*
X98413987Y-71679591D01*
X98355113Y-71537458D01*
X98269642Y-71409541D01*
X98160859Y-71300758D01*
X98032942Y-71215287D01*
X97890809Y-71156413D01*
X97739922Y-71126400D01*
X97586078Y-71126400D01*
X97435191Y-71156413D01*
X97293058Y-71215287D01*
X97165141Y-71300758D01*
X97056358Y-71409541D01*
X96970887Y-71537458D01*
X96912013Y-71679591D01*
X96882000Y-71830478D01*
X96882000Y-71984322D01*
X96912013Y-72135209D01*
X96970887Y-72277342D01*
X97056358Y-72405259D01*
X97165141Y-72514042D01*
X97293058Y-72599513D01*
X97435191Y-72658387D01*
X97586078Y-72688400D01*
X97653737Y-72688400D01*
X97687273Y-72721936D01*
X97687278Y-72721940D01*
X97882002Y-72916664D01*
X97882001Y-74995683D01*
X97298943Y-75578741D01*
X97288562Y-75578741D01*
X97347187Y-75437209D01*
X97377200Y-75286322D01*
X97377200Y-75132478D01*
X97347187Y-74981591D01*
X97288313Y-74839458D01*
X97202842Y-74711541D01*
X97155000Y-74663699D01*
X97155000Y-73866890D01*
X97157703Y-73839448D01*
X97155000Y-73812005D01*
X97146914Y-73729905D01*
X97114961Y-73624571D01*
X97063073Y-73527495D01*
X96993243Y-73442406D01*
X96971919Y-73424906D01*
X91506893Y-67959880D01*
X91489393Y-67938556D01*
X91404304Y-67868726D01*
X91307228Y-67816838D01*
X91201894Y-67784885D01*
X91119794Y-67776799D01*
X91119792Y-67776799D01*
X91092350Y-67774096D01*
X91064908Y-67776799D01*
X85297089Y-67776799D01*
X85269647Y-67774096D01*
X85242205Y-67776799D01*
X85242203Y-67776799D01*
X85160103Y-67784885D01*
X85054769Y-67816838D01*
X84957693Y-67868726D01*
X84872604Y-67938556D01*
X84855108Y-67959875D01*
X84294501Y-68520483D01*
X84294496Y-68520487D01*
X84260960Y-68554023D01*
X84193301Y-68554023D01*
X84042414Y-68584036D01*
X83900281Y-68642910D01*
X83772364Y-68728381D01*
X83663581Y-68837164D01*
X83578110Y-68965081D01*
X83519236Y-69107214D01*
X83489223Y-69258101D01*
X83489223Y-69411945D01*
X83519236Y-69562832D01*
X83578110Y-69704965D01*
X83663581Y-69832882D01*
X83772364Y-69941665D01*
X83900281Y-70027136D01*
X84042414Y-70086010D01*
X84193301Y-70116023D01*
X84347145Y-70116023D01*
X84498032Y-70086010D01*
X84640165Y-70027136D01*
X84768082Y-69941665D01*
X84876865Y-69832882D01*
X84962336Y-69704965D01*
X85021210Y-69562832D01*
X85051223Y-69411945D01*
X85051223Y-69344286D01*
X85084759Y-69310750D01*
X85084763Y-69310745D01*
X85501110Y-68894399D01*
X86928061Y-68894399D01*
X86899800Y-69036478D01*
X86899800Y-69190322D01*
X86929813Y-69341209D01*
X86988687Y-69483342D01*
X87074158Y-69611259D01*
X87182941Y-69720042D01*
X87187368Y-69723000D01*
X85064600Y-69723000D01*
X85039824Y-69725440D01*
X85015999Y-69732667D01*
X84994043Y-69744403D01*
X84974797Y-69760197D01*
X84959003Y-69779443D01*
X84947267Y-69801399D01*
X84940040Y-69825224D01*
X84937600Y-69850000D01*
X84937600Y-76429000D01*
X77876000Y-76429000D01*
X77876000Y-74287697D01*
X77895487Y-74334742D01*
X77980958Y-74462659D01*
X78089741Y-74571442D01*
X78217658Y-74656913D01*
X78359791Y-74715787D01*
X78510678Y-74745800D01*
X78664522Y-74745800D01*
X78815409Y-74715787D01*
X78957542Y-74656913D01*
X79085459Y-74571442D01*
X79194242Y-74462659D01*
X79279713Y-74334742D01*
X79338587Y-74192609D01*
X79368600Y-74041722D01*
X79368600Y-73887878D01*
X79338587Y-73736991D01*
X79279713Y-73594858D01*
X79222600Y-73509382D01*
X79222600Y-65363224D01*
X81436444Y-63149380D01*
X83474000Y-63149380D01*
X83474000Y-63342620D01*
X83511699Y-63532147D01*
X83585649Y-63710678D01*
X83693007Y-63871351D01*
X83829649Y-64007993D01*
X83990322Y-64115351D01*
X84168853Y-64189301D01*
X84358380Y-64227000D01*
X84551620Y-64227000D01*
X84741147Y-64189301D01*
X84919678Y-64115351D01*
X85080351Y-64007993D01*
X85216993Y-63871351D01*
X85324351Y-63710678D01*
X85398301Y-63532147D01*
X85436000Y-63342620D01*
X85436000Y-63149380D01*
X85398301Y-62959853D01*
X85324351Y-62781322D01*
X85216993Y-62620649D01*
X85080351Y-62484007D01*
X84919678Y-62376649D01*
X84741147Y-62302699D01*
X84551620Y-62265000D01*
X84358380Y-62265000D01*
X84168853Y-62302699D01*
X83990322Y-62376649D01*
X83829649Y-62484007D01*
X83693007Y-62620649D01*
X83585649Y-62781322D01*
X83511699Y-62959853D01*
X83474000Y-63149380D01*
X81436444Y-63149380D01*
X82330425Y-62255400D01*
X92065976Y-62255400D01*
X92075576Y-62265000D01*
X91978380Y-62265000D01*
X91788853Y-62302699D01*
X91610322Y-62376649D01*
X91449649Y-62484007D01*
X91313007Y-62620649D01*
X91205649Y-62781322D01*
X91131699Y-62959853D01*
X91094000Y-63149380D01*
X91094000Y-63342620D01*
X91108467Y-63415352D01*
X91032809Y-63384013D01*
X90881922Y-63354000D01*
X90728078Y-63354000D01*
X90577191Y-63384013D01*
X90435058Y-63442887D01*
X90307141Y-63528358D01*
X90198358Y-63637141D01*
X90112887Y-63765058D01*
X90054013Y-63907191D01*
X90024000Y-64058078D01*
X90024000Y-64211922D01*
X90054013Y-64362809D01*
X90112887Y-64504942D01*
X90198358Y-64632859D01*
X90299001Y-64733502D01*
X90299001Y-64770544D01*
X90296553Y-64795400D01*
X90306322Y-64894592D01*
X90335255Y-64989974D01*
X90335256Y-64989975D01*
X90382242Y-65077879D01*
X90445474Y-65154927D01*
X90464781Y-65170772D01*
X93884800Y-68590792D01*
X93884800Y-68733122D01*
X93914813Y-68884009D01*
X93973687Y-69026142D01*
X94059158Y-69154059D01*
X94167941Y-69262842D01*
X94295858Y-69348313D01*
X94437991Y-69407187D01*
X94588878Y-69437200D01*
X94742722Y-69437200D01*
X94893609Y-69407187D01*
X95035742Y-69348313D01*
X95163659Y-69262842D01*
X95272442Y-69154059D01*
X95357913Y-69026142D01*
X95416787Y-68884009D01*
X95446800Y-68733122D01*
X95446800Y-68579278D01*
X95416787Y-68428391D01*
X95357913Y-68286258D01*
X95272442Y-68158341D01*
X95163659Y-68049558D01*
X95035742Y-67964087D01*
X94893609Y-67905213D01*
X94742722Y-67875200D01*
X94600392Y-67875200D01*
X91384846Y-64659655D01*
X91411642Y-64632859D01*
X91497113Y-64504942D01*
X91555987Y-64362809D01*
X91586000Y-64211922D01*
X91586000Y-64099100D01*
X91610322Y-64115351D01*
X91788853Y-64189301D01*
X91978380Y-64227000D01*
X92171620Y-64227000D01*
X92361147Y-64189301D01*
X92539678Y-64115351D01*
X92700351Y-64007993D01*
X92836993Y-63871351D01*
X92944351Y-63710678D01*
X93018301Y-63532147D01*
X93052431Y-63360562D01*
X93117191Y-63387387D01*
X93268078Y-63417400D01*
X93421922Y-63417400D01*
X93572809Y-63387387D01*
X93714942Y-63328513D01*
X93842859Y-63243042D01*
X93951642Y-63134259D01*
X94037113Y-63006342D01*
X94095987Y-62864209D01*
X94126000Y-62713322D01*
X94126000Y-62559478D01*
X94095987Y-62408591D01*
X94037113Y-62266458D01*
X93951642Y-62138541D01*
X93842859Y-62029758D01*
X93714942Y-61944287D01*
X93572809Y-61885413D01*
X93471982Y-61865357D01*
X92800074Y-61193450D01*
X92780185Y-61169215D01*
X92683494Y-61089863D01*
X92573180Y-61030898D01*
X92453482Y-60994588D01*
X92360192Y-60985400D01*
X92360181Y-60985400D01*
X92329000Y-60982329D01*
X92297819Y-60985400D01*
X82098580Y-60985400D01*
X82067399Y-60982329D01*
X82036218Y-60985400D01*
X82036208Y-60985400D01*
X81942918Y-60994588D01*
X81823220Y-61030898D01*
X81751331Y-61069324D01*
X81712905Y-61089863D01*
X81661773Y-61131826D01*
X81616215Y-61169215D01*
X81596330Y-61193445D01*
X78160650Y-64629126D01*
X78136415Y-64649015D01*
X78057063Y-64745707D01*
X77998098Y-64856021D01*
X77961788Y-64975719D01*
X77952600Y-65069009D01*
X77952600Y-65069019D01*
X77949529Y-65100200D01*
X77952600Y-65131381D01*
X77952601Y-73509381D01*
X77895487Y-73594858D01*
X77876000Y-73641903D01*
X77876000Y-57556000D01*
X98654000Y-57556000D01*
X98654001Y-72108138D01*
M02*
