G04 #@! TF.GenerationSoftware,KiCad,Pcbnew,5.1.0-rc2-unknown-4612175~81~ubuntu18.04.1*
G04 #@! TF.CreationDate,2019-03-08T09:09:48+02:00*
G04 #@! TF.ProjectId,MOD-ENV_revB,4d4f442d-454e-4565-9f72-6576422e6b69,rev?*
G04 #@! TF.SameCoordinates,Original*
G04 #@! TF.FileFunction,Soldermask,Bot*
G04 #@! TF.FilePolarity,Negative*
%FSLAX46Y46*%
G04 Gerber Fmt 4.6, Leading zero omitted, Abs format (unit mm)*
G04 Created by KiCad (PCBNEW 5.1.0-rc2-unknown-4612175~81~ubuntu18.04.1) date 2019-03-08 09:09:48*
%MOMM*%
%LPD*%
G04 APERTURE LIST*
%ADD10C,0.100000*%
G04 APERTURE END LIST*
D10*
G36*
X88588655Y-71230489D02*
G01*
X88899865Y-71324894D01*
X89186683Y-71478201D01*
X89275810Y-71551346D01*
X89438082Y-71684518D01*
X89571254Y-71846789D01*
X89644399Y-71935916D01*
X89797706Y-72222734D01*
X89892111Y-72533944D01*
X89916000Y-72776498D01*
X89916000Y-74238702D01*
X89892111Y-74481256D01*
X89797706Y-74792466D01*
X89644399Y-75079284D01*
X89571254Y-75168411D01*
X89438082Y-75330682D01*
X89275811Y-75463854D01*
X89186684Y-75536999D01*
X88899866Y-75690306D01*
X88588656Y-75784711D01*
X88265000Y-75816588D01*
X87941345Y-75784711D01*
X87630135Y-75690306D01*
X87343317Y-75536999D01*
X87254190Y-75463854D01*
X87091919Y-75330682D01*
X86958747Y-75168411D01*
X86885602Y-75079284D01*
X86732295Y-74792465D01*
X86637889Y-74481256D01*
X86614000Y-74238702D01*
X86614000Y-72776499D01*
X86637889Y-72533945D01*
X86732294Y-72222735D01*
X86885601Y-71935917D01*
X86958746Y-71846790D01*
X87091918Y-71684518D01*
X87254189Y-71551346D01*
X87343316Y-71478201D01*
X87630134Y-71324894D01*
X87941344Y-71230489D01*
X88265000Y-71198612D01*
X88588655Y-71230489D01*
X88588655Y-71230489D01*
G37*
G36*
X92264831Y-62620210D02*
G01*
X92383269Y-62669268D01*
X92489861Y-62740491D01*
X92580509Y-62831139D01*
X92651732Y-62937731D01*
X92700790Y-63056169D01*
X92725800Y-63181902D01*
X92725800Y-63310098D01*
X92700790Y-63435831D01*
X92651732Y-63554269D01*
X92580509Y-63660861D01*
X92489861Y-63751509D01*
X92383269Y-63822732D01*
X92264831Y-63871790D01*
X92139098Y-63896800D01*
X92010902Y-63896800D01*
X91885169Y-63871790D01*
X91766731Y-63822732D01*
X91660139Y-63751509D01*
X91569491Y-63660861D01*
X91498268Y-63554269D01*
X91449210Y-63435831D01*
X91424200Y-63310098D01*
X91424200Y-63181902D01*
X91449210Y-63056169D01*
X91498268Y-62937731D01*
X91569491Y-62831139D01*
X91660139Y-62740491D01*
X91766731Y-62669268D01*
X91885169Y-62620210D01*
X92010902Y-62595200D01*
X92139098Y-62595200D01*
X92264831Y-62620210D01*
X92264831Y-62620210D01*
G37*
G36*
X84644831Y-62620210D02*
G01*
X84763269Y-62669268D01*
X84869861Y-62740491D01*
X84960509Y-62831139D01*
X85031732Y-62937731D01*
X85080790Y-63056169D01*
X85105800Y-63181902D01*
X85105800Y-63310098D01*
X85080790Y-63435831D01*
X85031732Y-63554269D01*
X84960509Y-63660861D01*
X84869861Y-63751509D01*
X84763269Y-63822732D01*
X84644831Y-63871790D01*
X84519098Y-63896800D01*
X84390902Y-63896800D01*
X84265169Y-63871790D01*
X84146731Y-63822732D01*
X84040139Y-63751509D01*
X83949491Y-63660861D01*
X83878268Y-63554269D01*
X83829210Y-63435831D01*
X83804200Y-63310098D01*
X83804200Y-63181902D01*
X83829210Y-63056169D01*
X83878268Y-62937731D01*
X83949491Y-62831139D01*
X84040139Y-62740491D01*
X84146731Y-62669268D01*
X84265169Y-62620210D01*
X84390902Y-62595200D01*
X84519098Y-62595200D01*
X84644831Y-62620210D01*
X84644831Y-62620210D01*
G37*
M02*
