G04 #@! TF.GenerationSoftware,KiCad,Pcbnew,5.1.0-rc2-unknown-4612175~81~ubuntu18.04.1*
G04 #@! TF.CreationDate,2019-03-08T09:09:48+02:00*
G04 #@! TF.ProjectId,MOD-ENV_revB,4d4f442d-454e-4565-9f72-6576422e6b69,rev?*
G04 #@! TF.SameCoordinates,Original*
G04 #@! TF.FileFunction,Soldermask,Top*
G04 #@! TF.FilePolarity,Negative*
%FSLAX46Y46*%
G04 Gerber Fmt 4.6, Leading zero omitted, Abs format (unit mm)*
G04 Created by KiCad (PCBNEW 5.1.0-rc2-unknown-4612175~81~ubuntu18.04.1) date 2019-03-08 09:09:48*
%MOMM*%
%LPD*%
G04 APERTURE LIST*
%ADD10C,0.100000*%
G04 APERTURE END LIST*
D10*
G36*
X98598800Y-76398800D02*
G01*
X97997200Y-76398800D01*
X97997200Y-75747200D01*
X98598800Y-75747200D01*
X98598800Y-76398800D01*
X98598800Y-76398800D01*
G37*
G36*
X97582800Y-76398800D02*
G01*
X96981200Y-76398800D01*
X96981200Y-75747200D01*
X97582800Y-75747200D01*
X97582800Y-76398800D01*
X97582800Y-76398800D01*
G37*
G36*
X88588655Y-71230489D02*
G01*
X88899865Y-71324894D01*
X89186683Y-71478201D01*
X89275810Y-71551346D01*
X89438082Y-71684518D01*
X89571254Y-71846789D01*
X89644399Y-71935916D01*
X89797706Y-72222734D01*
X89892111Y-72533944D01*
X89916000Y-72776498D01*
X89916000Y-74238702D01*
X89892111Y-74481256D01*
X89797706Y-74792466D01*
X89644399Y-75079284D01*
X89571254Y-75168411D01*
X89438082Y-75330682D01*
X89275811Y-75463854D01*
X89186684Y-75536999D01*
X88899866Y-75690306D01*
X88588656Y-75784711D01*
X88265000Y-75816588D01*
X87941345Y-75784711D01*
X87630135Y-75690306D01*
X87343317Y-75536999D01*
X87254190Y-75463854D01*
X87091919Y-75330682D01*
X86958747Y-75168411D01*
X86885602Y-75079284D01*
X86732295Y-74792465D01*
X86637889Y-74481256D01*
X86614000Y-74238702D01*
X86614000Y-72776499D01*
X86637889Y-72533945D01*
X86732294Y-72222735D01*
X86885601Y-71935917D01*
X86958746Y-71846790D01*
X87091918Y-71684518D01*
X87254189Y-71551346D01*
X87343316Y-71478201D01*
X87630134Y-71324894D01*
X87941344Y-71230489D01*
X88265000Y-71198612D01*
X88588655Y-71230489D01*
X88588655Y-71230489D01*
G37*
G36*
X81929500Y-75239000D02*
G01*
X81504500Y-75239000D01*
X81504500Y-74639000D01*
X81929500Y-74639000D01*
X81929500Y-75239000D01*
X81929500Y-75239000D01*
G37*
G36*
X82579500Y-75239000D02*
G01*
X82154500Y-75239000D01*
X82154500Y-74639000D01*
X82579500Y-74639000D01*
X82579500Y-75239000D01*
X82579500Y-75239000D01*
G37*
G36*
X81279500Y-75239000D02*
G01*
X80854500Y-75239000D01*
X80854500Y-74639000D01*
X81279500Y-74639000D01*
X81279500Y-75239000D01*
X81279500Y-75239000D01*
G37*
G36*
X83229500Y-75239000D02*
G01*
X82804500Y-75239000D01*
X82804500Y-74639000D01*
X83229500Y-74639000D01*
X83229500Y-75239000D01*
X83229500Y-75239000D01*
G37*
G36*
X96015800Y-74882200D02*
G01*
X95614200Y-74882200D01*
X95614200Y-74180600D01*
X96015800Y-74180600D01*
X96015800Y-74882200D01*
X96015800Y-74882200D01*
G37*
G36*
X94815800Y-74882200D02*
G01*
X94414200Y-74882200D01*
X94414200Y-74180600D01*
X94815800Y-74180600D01*
X94815800Y-74882200D01*
X94815800Y-74882200D01*
G37*
G36*
X95415800Y-74882200D02*
G01*
X95014200Y-74882200D01*
X95014200Y-74180600D01*
X95415800Y-74180600D01*
X95415800Y-74882200D01*
X95415800Y-74882200D01*
G37*
G36*
X93615800Y-74882200D02*
G01*
X93214200Y-74882200D01*
X93214200Y-74180600D01*
X93615800Y-74180600D01*
X93615800Y-74882200D01*
X93615800Y-74882200D01*
G37*
G36*
X94215800Y-74882200D02*
G01*
X93814200Y-74882200D01*
X93814200Y-74180600D01*
X94215800Y-74180600D01*
X94215800Y-74882200D01*
X94215800Y-74882200D01*
G37*
G36*
X79954800Y-74214800D02*
G01*
X79303200Y-74214800D01*
X79303200Y-73613200D01*
X79954800Y-73613200D01*
X79954800Y-74214800D01*
X79954800Y-74214800D01*
G37*
G36*
X98242800Y-74214800D02*
G01*
X97591200Y-74214800D01*
X97591200Y-73613200D01*
X98242800Y-73613200D01*
X98242800Y-74214800D01*
X98242800Y-74214800D01*
G37*
G36*
X95566000Y-74082400D02*
G01*
X93664000Y-74082400D01*
X93664000Y-72780400D01*
X95566000Y-72780400D01*
X95566000Y-74082400D01*
X95566000Y-74082400D01*
G37*
G36*
X79954800Y-73198800D02*
G01*
X79303200Y-73198800D01*
X79303200Y-72597200D01*
X79954800Y-72597200D01*
X79954800Y-73198800D01*
X79954800Y-73198800D01*
G37*
G36*
X98242800Y-73198800D02*
G01*
X97591200Y-73198800D01*
X97591200Y-72597200D01*
X98242800Y-72597200D01*
X98242800Y-73198800D01*
X98242800Y-73198800D01*
G37*
G36*
X81279500Y-73189000D02*
G01*
X80854500Y-73189000D01*
X80854500Y-72589000D01*
X81279500Y-72589000D01*
X81279500Y-73189000D01*
X81279500Y-73189000D01*
G37*
G36*
X81929500Y-73189000D02*
G01*
X81504500Y-73189000D01*
X81504500Y-72589000D01*
X81929500Y-72589000D01*
X81929500Y-73189000D01*
X81929500Y-73189000D01*
G37*
G36*
X83229500Y-73189000D02*
G01*
X82804500Y-73189000D01*
X82804500Y-72589000D01*
X83229500Y-72589000D01*
X83229500Y-73189000D01*
X83229500Y-73189000D01*
G37*
G36*
X82579500Y-73189000D02*
G01*
X82154500Y-73189000D01*
X82154500Y-72589000D01*
X82579500Y-72589000D01*
X82579500Y-73189000D01*
X82579500Y-73189000D01*
G37*
G36*
X96015800Y-72682200D02*
G01*
X95614200Y-72682200D01*
X95614200Y-71980600D01*
X96015800Y-71980600D01*
X96015800Y-72682200D01*
X96015800Y-72682200D01*
G37*
G36*
X94815800Y-72682200D02*
G01*
X94414200Y-72682200D01*
X94414200Y-71980600D01*
X94815800Y-71980600D01*
X94815800Y-72682200D01*
X94815800Y-72682200D01*
G37*
G36*
X94215800Y-72682200D02*
G01*
X93814200Y-72682200D01*
X93814200Y-71980600D01*
X94215800Y-71980600D01*
X94215800Y-72682200D01*
X94215800Y-72682200D01*
G37*
G36*
X95415800Y-72682200D02*
G01*
X95014200Y-72682200D01*
X95014200Y-71980600D01*
X95415800Y-71980600D01*
X95415800Y-72682200D01*
X95415800Y-72682200D01*
G37*
G36*
X93615800Y-72682200D02*
G01*
X93214200Y-72682200D01*
X93214200Y-71980600D01*
X93615800Y-71980600D01*
X93615800Y-72682200D01*
X93615800Y-72682200D01*
G37*
G36*
X82683648Y-71305873D02*
G01*
X82082048Y-71305873D01*
X82082048Y-70654273D01*
X82683648Y-70654273D01*
X82683648Y-71305873D01*
X82683648Y-71305873D01*
G37*
G36*
X83699648Y-71305873D02*
G01*
X83098048Y-71305873D01*
X83098048Y-70654273D01*
X83699648Y-70654273D01*
X83699648Y-71305873D01*
X83699648Y-71305873D01*
G37*
G36*
X92604000Y-71166800D02*
G01*
X91952400Y-71166800D01*
X91952400Y-70565200D01*
X92604000Y-70565200D01*
X92604000Y-71166800D01*
X92604000Y-71166800D01*
G37*
G36*
X97226800Y-71166800D02*
G01*
X96575200Y-71166800D01*
X96575200Y-70565200D01*
X97226800Y-70565200D01*
X97226800Y-71166800D01*
X97226800Y-71166800D01*
G37*
G36*
X96083800Y-71166800D02*
G01*
X95432200Y-71166800D01*
X95432200Y-70565200D01*
X96083800Y-70565200D01*
X96083800Y-71166800D01*
X96083800Y-71166800D01*
G37*
G36*
X94940800Y-71166800D02*
G01*
X94289200Y-71166800D01*
X94289200Y-70565200D01*
X94940800Y-70565200D01*
X94940800Y-71166800D01*
X94940800Y-71166800D01*
G37*
G36*
X93747000Y-71166800D02*
G01*
X93095400Y-71166800D01*
X93095400Y-70565200D01*
X93747000Y-70565200D01*
X93747000Y-71166800D01*
X93747000Y-71166800D01*
G37*
G36*
X80192889Y-69247095D02*
G01*
X80256534Y-69273458D01*
X80307000Y-69294361D01*
X80409687Y-69362975D01*
X80497025Y-69450313D01*
X80565639Y-69553000D01*
X80586542Y-69603466D01*
X80612905Y-69667111D01*
X80637000Y-69788246D01*
X80637000Y-69911754D01*
X80612905Y-70032889D01*
X80586542Y-70096534D01*
X80565639Y-70147000D01*
X80497025Y-70249687D01*
X80409687Y-70337025D01*
X80307000Y-70405639D01*
X80256534Y-70426542D01*
X80192889Y-70452905D01*
X80071754Y-70477000D01*
X79948246Y-70477000D01*
X79827111Y-70452905D01*
X79763466Y-70426542D01*
X79713000Y-70405639D01*
X79610313Y-70337025D01*
X79522975Y-70249687D01*
X79454361Y-70147000D01*
X79433458Y-70096534D01*
X79407095Y-70032889D01*
X79383000Y-69911754D01*
X79383000Y-69788246D01*
X79407095Y-69667111D01*
X79433458Y-69603466D01*
X79454361Y-69553000D01*
X79522975Y-69450313D01*
X79610313Y-69362975D01*
X79713000Y-69294361D01*
X79763466Y-69273458D01*
X79827111Y-69247095D01*
X79948246Y-69223000D01*
X80071754Y-69223000D01*
X80192889Y-69247095D01*
X80192889Y-69247095D01*
G37*
G36*
X82683648Y-70162873D02*
G01*
X82082048Y-70162873D01*
X82082048Y-69511273D01*
X82683648Y-69511273D01*
X82683648Y-70162873D01*
X82683648Y-70162873D01*
G37*
G36*
X83699648Y-70162873D02*
G01*
X83098048Y-70162873D01*
X83098048Y-69511273D01*
X83699648Y-69511273D01*
X83699648Y-70162873D01*
X83699648Y-70162873D01*
G37*
G36*
X92604000Y-70150800D02*
G01*
X91952400Y-70150800D01*
X91952400Y-69549200D01*
X92604000Y-69549200D01*
X92604000Y-70150800D01*
X92604000Y-70150800D01*
G37*
G36*
X94940800Y-70150800D02*
G01*
X94289200Y-70150800D01*
X94289200Y-69549200D01*
X94940800Y-69549200D01*
X94940800Y-70150800D01*
X94940800Y-70150800D01*
G37*
G36*
X96083800Y-70150800D02*
G01*
X95432200Y-70150800D01*
X95432200Y-69549200D01*
X96083800Y-69549200D01*
X96083800Y-70150800D01*
X96083800Y-70150800D01*
G37*
G36*
X97226800Y-70150800D02*
G01*
X96575200Y-70150800D01*
X96575200Y-69549200D01*
X97226800Y-69549200D01*
X97226800Y-70150800D01*
X97226800Y-70150800D01*
G37*
G36*
X93747000Y-70150800D02*
G01*
X93095400Y-70150800D01*
X93095400Y-69549200D01*
X93747000Y-69549200D01*
X93747000Y-70150800D01*
X93747000Y-70150800D01*
G37*
G36*
X86410800Y-68376800D02*
G01*
X85039200Y-68376800D01*
X85039200Y-64465200D01*
X86410800Y-64465200D01*
X86410800Y-68376800D01*
X86410800Y-68376800D01*
G37*
G36*
X88950800Y-68376800D02*
G01*
X87579200Y-68376800D01*
X87579200Y-64465200D01*
X88950800Y-64465200D01*
X88950800Y-68376800D01*
X88950800Y-68376800D01*
G37*
G36*
X94030800Y-68376800D02*
G01*
X92659200Y-68376800D01*
X92659200Y-64465200D01*
X94030800Y-64465200D01*
X94030800Y-68376800D01*
X94030800Y-68376800D01*
G37*
G36*
X91490800Y-68376800D02*
G01*
X90119200Y-68376800D01*
X90119200Y-64465200D01*
X91490800Y-64465200D01*
X91490800Y-68376800D01*
X91490800Y-68376800D01*
G37*
G36*
X83870800Y-68376800D02*
G01*
X82499200Y-68376800D01*
X82499200Y-64465200D01*
X83870800Y-64465200D01*
X83870800Y-68376800D01*
X83870800Y-68376800D01*
G37*
G36*
X84644831Y-62620210D02*
G01*
X84763269Y-62669268D01*
X84869861Y-62740491D01*
X84960509Y-62831139D01*
X85031732Y-62937731D01*
X85080790Y-63056169D01*
X85105800Y-63181902D01*
X85105800Y-63310098D01*
X85080790Y-63435831D01*
X85031732Y-63554269D01*
X84960509Y-63660861D01*
X84869861Y-63751509D01*
X84763269Y-63822732D01*
X84644831Y-63871790D01*
X84519098Y-63896800D01*
X84390902Y-63896800D01*
X84265169Y-63871790D01*
X84146731Y-63822732D01*
X84040139Y-63751509D01*
X83949491Y-63660861D01*
X83878268Y-63554269D01*
X83829210Y-63435831D01*
X83804200Y-63310098D01*
X83804200Y-63181902D01*
X83829210Y-63056169D01*
X83878268Y-62937731D01*
X83949491Y-62831139D01*
X84040139Y-62740491D01*
X84146731Y-62669268D01*
X84265169Y-62620210D01*
X84390902Y-62595200D01*
X84519098Y-62595200D01*
X84644831Y-62620210D01*
X84644831Y-62620210D01*
G37*
G36*
X92264831Y-62620210D02*
G01*
X92383269Y-62669268D01*
X92489861Y-62740491D01*
X92580509Y-62831139D01*
X92651732Y-62937731D01*
X92700790Y-63056169D01*
X92725800Y-63181902D01*
X92725800Y-63310098D01*
X92700790Y-63435831D01*
X92651732Y-63554269D01*
X92580509Y-63660861D01*
X92489861Y-63751509D01*
X92383269Y-63822732D01*
X92264831Y-63871790D01*
X92139098Y-63896800D01*
X92010902Y-63896800D01*
X91885169Y-63871790D01*
X91766731Y-63822732D01*
X91660139Y-63751509D01*
X91569491Y-63660861D01*
X91498268Y-63554269D01*
X91449210Y-63435831D01*
X91424200Y-63310098D01*
X91424200Y-63181902D01*
X91449210Y-63056169D01*
X91498268Y-62937731D01*
X91569491Y-62831139D01*
X91660139Y-62740491D01*
X91766731Y-62669268D01*
X91885169Y-62620210D01*
X92010902Y-62595200D01*
X92139098Y-62595200D01*
X92264831Y-62620210D01*
X92264831Y-62620210D01*
G37*
G36*
X96575889Y-60992095D02*
G01*
X96639534Y-61018458D01*
X96690000Y-61039361D01*
X96792687Y-61107975D01*
X96880025Y-61195313D01*
X96948639Y-61298000D01*
X96969542Y-61348466D01*
X96995905Y-61412111D01*
X97020000Y-61533246D01*
X97020000Y-61656754D01*
X96995905Y-61777889D01*
X96969542Y-61841534D01*
X96948639Y-61892000D01*
X96880025Y-61994687D01*
X96792687Y-62082025D01*
X96690000Y-62150639D01*
X96639534Y-62171542D01*
X96575889Y-62197905D01*
X96454754Y-62222000D01*
X96331246Y-62222000D01*
X96210111Y-62197905D01*
X96146466Y-62171542D01*
X96096000Y-62150639D01*
X95993313Y-62082025D01*
X95905975Y-61994687D01*
X95837361Y-61892000D01*
X95816458Y-61841534D01*
X95790095Y-61777889D01*
X95766000Y-61656754D01*
X95766000Y-61533246D01*
X95790095Y-61412111D01*
X95816458Y-61348466D01*
X95837361Y-61298000D01*
X95905975Y-61195313D01*
X95993313Y-61107975D01*
X96096000Y-61039361D01*
X96146466Y-61018458D01*
X96210111Y-60992095D01*
X96331246Y-60968000D01*
X96454754Y-60968000D01*
X96575889Y-60992095D01*
X96575889Y-60992095D01*
G37*
G36*
X83870800Y-62026800D02*
G01*
X82499200Y-62026800D01*
X82499200Y-58115200D01*
X83870800Y-58115200D01*
X83870800Y-62026800D01*
X83870800Y-62026800D01*
G37*
G36*
X86410800Y-62026800D02*
G01*
X85039200Y-62026800D01*
X85039200Y-58115200D01*
X86410800Y-58115200D01*
X86410800Y-62026800D01*
X86410800Y-62026800D01*
G37*
G36*
X88950800Y-62026800D02*
G01*
X87579200Y-62026800D01*
X87579200Y-58115200D01*
X88950800Y-58115200D01*
X88950800Y-62026800D01*
X88950800Y-62026800D01*
G37*
G36*
X91490800Y-62026800D02*
G01*
X90119200Y-62026800D01*
X90119200Y-58115200D01*
X91490800Y-58115200D01*
X91490800Y-62026800D01*
X91490800Y-62026800D01*
G37*
G36*
X94030800Y-62026800D02*
G01*
X92659200Y-62026800D01*
X92659200Y-58115200D01*
X94030800Y-58115200D01*
X94030800Y-62026800D01*
X94030800Y-62026800D01*
G37*
M02*
