G04 #@! TF.GenerationSoftware,KiCad,Pcbnew,5.1.0-rc2-unknown-4612175~81~ubuntu18.04.1*
G04 #@! TF.CreationDate,2019-03-08T09:09:48+02:00*
G04 #@! TF.ProjectId,MOD-ENV_revB,4d4f442d-454e-4565-9f72-6576422e6b69,rev?*
G04 #@! TF.SameCoordinates,Original*
G04 #@! TF.FileFunction,Paste,Top*
G04 #@! TF.FilePolarity,Positive*
%FSLAX46Y46*%
G04 Gerber Fmt 4.6, Leading zero omitted, Abs format (unit mm)*
G04 Created by KiCad (PCBNEW 5.1.0-rc2-unknown-4612175~81~ubuntu18.04.1) date 2019-03-08 09:09:48*
%MOMM*%
%LPD*%
G04 APERTURE LIST*
%ADD10C,1.700000*%
%ADD11C,0.100000*%
%ADD12R,0.550000X0.500000*%
%ADD13R,0.500000X0.550000*%
%ADD14R,0.300000X0.600000*%
%ADD15R,1.800000X1.200000*%
%ADD16R,0.325000X0.500000*%
G04 APERTURE END LIST*
D10*
X93345000Y-60071000D03*
D11*
G36*
X92495000Y-61976000D02*
G01*
X92495000Y-58166000D01*
X94195000Y-58166000D01*
X94195000Y-61976000D01*
X92495000Y-61976000D01*
X92495000Y-61976000D01*
G37*
D10*
X90805000Y-60071000D03*
D11*
G36*
X89955000Y-61976000D02*
G01*
X89955000Y-58166000D01*
X91655000Y-58166000D01*
X91655000Y-61976000D01*
X89955000Y-61976000D01*
X89955000Y-61976000D01*
G37*
D10*
X88265000Y-60071000D03*
D11*
G36*
X87415000Y-61976000D02*
G01*
X87415000Y-58166000D01*
X89115000Y-58166000D01*
X89115000Y-61976000D01*
X87415000Y-61976000D01*
X87415000Y-61976000D01*
G37*
D10*
X85725000Y-60071000D03*
D11*
G36*
X84875000Y-61976000D02*
G01*
X84875000Y-58166000D01*
X86575000Y-58166000D01*
X86575000Y-61976000D01*
X84875000Y-61976000D01*
X84875000Y-61976000D01*
G37*
D10*
X83185000Y-60071000D03*
D11*
G36*
X82335000Y-61976000D02*
G01*
X82335000Y-58166000D01*
X84035000Y-58166000D01*
X84035000Y-61976000D01*
X82335000Y-61976000D01*
X82335000Y-61976000D01*
G37*
D10*
X93345000Y-66421000D03*
D11*
G36*
X92495000Y-68326000D02*
G01*
X92495000Y-64516000D01*
X94195000Y-64516000D01*
X94195000Y-68326000D01*
X92495000Y-68326000D01*
X92495000Y-68326000D01*
G37*
D10*
X90805000Y-66421000D03*
D11*
G36*
X89955000Y-68326000D02*
G01*
X89955000Y-64516000D01*
X91655000Y-64516000D01*
X91655000Y-68326000D01*
X89955000Y-68326000D01*
X89955000Y-68326000D01*
G37*
D10*
X83185000Y-66421000D03*
D11*
G36*
X82335000Y-68326000D02*
G01*
X82335000Y-64516000D01*
X84035000Y-64516000D01*
X84035000Y-68326000D01*
X82335000Y-68326000D01*
X82335000Y-68326000D01*
G37*
D10*
X85725000Y-66421000D03*
D11*
G36*
X84875000Y-68326000D02*
G01*
X84875000Y-64516000D01*
X86575000Y-64516000D01*
X86575000Y-68326000D01*
X84875000Y-68326000D01*
X84875000Y-68326000D01*
G37*
D10*
X88265000Y-66421000D03*
D11*
G36*
X87415000Y-68326000D02*
G01*
X87415000Y-64516000D01*
X89115000Y-64516000D01*
X89115000Y-68326000D01*
X87415000Y-68326000D01*
X87415000Y-68326000D01*
G37*
D12*
X93421200Y-69850000D03*
X93421200Y-70866000D03*
D13*
X82382848Y-69837073D03*
X83398848Y-69837073D03*
X82382848Y-70980073D03*
X83398848Y-70980073D03*
D12*
X92278200Y-69850000D03*
X92278200Y-70866000D03*
X94615000Y-69850000D03*
X94615000Y-70866000D03*
X95758000Y-69850000D03*
X95758000Y-70866000D03*
X97917000Y-72898000D03*
X97917000Y-73914000D03*
X96901000Y-70866000D03*
X96901000Y-69850000D03*
D14*
X94015000Y-74531400D03*
X93415000Y-74531400D03*
X95215000Y-74531400D03*
X95815000Y-74531400D03*
X94615000Y-74531400D03*
X93415000Y-72331400D03*
X94015000Y-72331400D03*
X94615000Y-72331400D03*
X95215000Y-72331400D03*
D15*
X94615000Y-73431400D03*
D14*
X95815000Y-72331400D03*
D16*
X81067000Y-74939000D03*
X81717000Y-74939000D03*
X82367000Y-74939000D03*
X83017000Y-74939000D03*
X83017000Y-72889000D03*
X82367000Y-72889000D03*
X81717000Y-72889000D03*
X81067000Y-72889000D03*
D13*
X98298000Y-76073000D03*
X97282000Y-76073000D03*
D12*
X79629000Y-72898000D03*
X79629000Y-73914000D03*
M02*
